<?xml version="1.0" encoding="UTF-8"?>
<svg version="1.1" xmlns="http://www.w3.org/2000/svg" width="32" height="32">
<path d="M0 0 C6.89667623 0.97410681 12.96405154 4.28965166 18 9 C19.10852631 13.20316227 18.82662392 16.76090297 18 21 C19.32 21.66 20.64 22.32 22 23 C22 25.31 22 27.62 22 30 C20.02 30.99 20.02 30.99 18 32 C18 38.27 18 44.54 18 51 C20.97 51.495 20.97 51.495 24 52 C26.875 53.4375 26.875 53.4375 29 55 C29 55.66 29 56.32 29 57 C24.60154513 55.90038628 20.30116263 54.43372088 16 53 C16 46.07 16 39.14 16 32 C14.68 31.67 13.36 31.34 12 31 C11 30 11 30 10.8125 26.5625 C11 23 11 23 13 21 C13.99 21 14.98 21 16 21 C16.37933348 17.37444729 16.29932053 14.43000707 15 11 C11.30590908 8.00151536 7.31802484 5.96688311 3 4 C2.67 8.29 2.34 12.58 2 17 C3.32 16.67 4.64 16.34 6 16 C6 27.22 6 38.44 6 50 C5.34 50 4.68 50 4 50 C4 40.1 4 30.2 4 20 C3.34 20 2.68 20 2 20 C2 29.9 2 39.8 2 50 C1.34 50 0.68 50 0 50 C-0.33 41.09 -0.66 32.18 -1 23 C-3.475 24.485 -3.475 24.485 -6 26 C-6.78001856 28.78676403 -6.78001856 28.78676403 -6.70703125 31.98046875 C-6.73603516 33.14384766 -6.76503906 34.30722656 -6.79492188 35.50585938 C-6.80072266 36.72080078 -6.80652344 37.93574219 -6.8125 39.1875 C-6.83763672 40.41404297 -6.86277344 41.64058594 -6.88867188 42.90429688 C-6.94766454 45.9365198 -6.98385681 48.96729509 -7 52 C-8.58199631 52.64910154 -10.16565724 53.29414694 -11.75 53.9375 C-13.07257812 54.47697266 -13.07257812 54.47697266 -14.421875 55.02734375 C-16.61186104 55.85356576 -18.71898271 56.49369943 -21 57 C-20 54 -20 54 -17.71484375 52.83203125 C-16.79832031 52.49558594 -15.88179687 52.15914062 -14.9375 51.8125 C-14.01839844 51.46832031 -13.09929688 51.12414063 -12.15234375 50.76953125 C-11.44207031 50.51558594 -10.73179688 50.26164062 -10 50 C-10.01740234 48.85785034 -10.01740234 48.85785034 -10.03515625 47.69262695 C-10.06469108 44.23151356 -10.03297991 40.7735588 -10 37.3125 C-10.02900391 35.51522461 -10.02900391 35.51522461 -10.05859375 33.68164062 C-10.00168898 30.27683845 -9.87839958 27.29314061 -9 24 C-7.04304728 22.2694781 -5.17075573 21.36089154 -2.8125 20.26098633 C-0.81114072 19.13131575 -0.81114072 19.13131575 -0.25 16.8581543 C0.00826489 14.2727311 0.05810497 11.78479228 0 9.1875 C0.01160156 8.30384766 0.02320312 7.42019531 0.03515625 6.50976562 C0.05861384 4.3399389 0.03406769 2.16968608 0 0 Z M15 23 C14.34 23.66 13.68 24.32 13 25 C13.16666667 27.08333333 13.16666667 27.08333333 14 29 C14.66 29.33 15.32 29.66 16 30 C16 27.69 16 25.38 16 23 C15.67 23 15.34 23 15 23 Z M18 24 C18 25.65 18 27.3 18 29 C18.66 28.67 19.32 28.34 20 28 C19.67 26.68 19.34 25.36 19 24 C18.67 24 18.34 24 18 24 Z " fill="#666"/>
</svg>
